<svg xmlns="http://www.w3.org/2000/svg" viewBox="0 0 500 625" x="0px" y="0px"><title></title><path fill="white" d="M487.85986,346.51123c-15.63037-13.28516-32.21728-21.86475-50.70849-26.22949-22.64807-5.34418-48.0235-4.16571-75.58429,3.45642q2.37332-2.81552,4.70929-5.79382c2.39551-3.05964,5.20239-6.83869,8.17431-11.21607a84.69908,84.69908,0,0,0,10.5.6521c13.16993,0,32.49463-3.124,41.32032-19.89258,7.07031-13.43359,7.57324-29.26123,1.34521-42.33984a38.28939,38.28939,0,0,0-24.93585-20.90375c-.71332-29.66284-15.11963-55.09466-42.40253-74.35943-.18091-.12769-.36871-.23713-.55487-.3512a100.27469,100.27469,0,0,0-19.09015-32.72351C321.395,94.96045,295.14746,85.37891,272.13232,91.80078a9.93752,9.93752,0,0,0-4.60571,2.80554A86.7091,86.7091,0,0,0,241.207,87.29541c-17.83484-2.16931-38.534.16022-61.6532,6.88715-.2821-15.86139,2.30188-27.51978,4.4867-37.372C188.04248,38.7627,191.499,23.17627,168.54,6.33936c-.042-.03077-.08447-.06153-.12695-.0918-4.84766-3.43945-17.66211-4.41651-29.11573,2.69433-18.77008,11.65174-27.80548,39.24433-27.06195,82.26172a249.77391,249.77391,0,0,1-6.93414-25.40527C98.374,33.24072,86.06738,11.22168,70.64844,3.79688,63.9751.584,57.06934.42871,51.20312,3.3623,45.43408,6.24707,33.4292,12.249,30.31445,33.5332,27.22852,54.62207,33.10059,87.45068,48.2666,133.89551a297.53209,297.53209,0,0,0,11.16028,28.93286c-7.09772,14.724-48.24915,104.952-19.5094,160.78442,11.32813,22.00727,31.67511,35.7414,60.45294,40.907.51843.77075,1.02857,1.54547,1.56122,2.30926,29.99658,43.01514,81.19336,71.30664,133.61133,73.834,82.33349,3.96972,133.706,14.30615,157.05322,31.60058,12.70313,9.40967,27.728,14.39209,41.10889,14.39209,8.10449,0,15.606-1.82764,21.623-5.60644a25.38338,25.38338,0,0,0,11.76172-27.08106c-5.57537-29.27325-32.493-52.21356-76.15533-65.16907,20.9881-4.94354,36.74371-5.73608,52.20514,2.47474,10.44922,5.54882,19.60156,7.77295,27.334,7.77246,12.23682-.00049,20.91309-5.57325,25.51807-12.35791C504.28809,374.46533,500.86816,357.56885,487.85986,346.51123Zm-78.30078-92.76367c3.478,7.30224,3.09961,16.66162-.98633,24.42529-3.921,7.44879-14.34576,9.12708-22.51208,9.209,6.47327-12.36084,12.291-26.88263,15.01648-42.4903l.00323-.02032A18.58071,18.58071,0,0,1,409.55908,253.74756ZM381.375,241.45117c-8.26123,47.31006-52.03906,91.31836-64.12549,94.65137-.15143.04175-.29443.09814-.44226.1463a482.79661,482.79661,0,0,1-52.40637,7.53021l.01855-.012c43.00782-28.01758,74.0835-62.61133,89.86768-100.0415,8.89386-21.092,12.82288-41.88373,11.767-61.96906C380.257,198.36218,385.40759,218.35864,381.375,241.45117ZM325.62256,130.02686c8.709,9.89062,35.18555,46.76123,10.23584,105.92724C311.23114,294.35571,251.58789,330.465,219.051,346.50159a9.94974,9.94974,0,0,0-3.907,1.89337c-9.56817,4.557-16.152,7.108-17.76928,7.71686-.32465-.15772-.64643-.30658-.97193-.4668a102.831,102.831,0,0,1-17.74042-11.01624c29.03193-13.90191,105.85334-54.788,125.87519-106.66394,15.35888-39.79248,15.084-96.46875-15.15821-127.7998-.061-.06323-.12536-.12189-.18658-.18488C301.7182,110.90594,315.09625,118.07184,325.62256,130.02686Zm-50.6333-5.97168c24.16308,25.03271,23.645,73.66162,10.89013,106.70849-18.932,49.05078-103.24871,90.0755-122.3078,98.82367a81.87119,81.87119,0,0,1-11.148-19.38183c13.35578-5.81366,59.83973-28.38489,98.3396-75.57807,16.64551-20.4043,21.69678-46.02051,14.60694-74.0791a122.35018,122.35018,0,0,0-15.4961-35.74707,10.00161,10.00161,0,0,0-6.9834-4.27734c-1.543-.19959-33.45007-4.04389-56.29937,11.93475a83.20979,83.20979,0,0,1-5.1994-17.95374C223.94348,101.34283,256.20581,104.59479,274.98926,124.05518ZM156.41064,286.01709c-3.82324,2.01422-7.04895,3.57928-9.50677,4.7168a100.86365,100.86365,0,0,1-1.342-13.46576C149.67218,280.75439,153.33142,283.66553,156.41064,286.01709ZM211.3623,167.40521A117.22413,117.22413,0,0,1,196.39,150.08942c12.202-9.77,30.8-10.36481,39.35614-10.044a108.508,108.508,0,0,1,8.18818,18.45892C230.288,157.47272,218.48987,162.96448,211.3623,167.40521Zm36.93787,12.25263a64.98952,64.98952,0,0,1-.38837,13.61432A158.24619,158.24619,0,0,1,228.05237,181.191C233.67047,178.79791,240.92468,177.19843,248.30017,179.65784ZM137.90088,149.14648c-13.56445-85.48535-.13184-112.51513,9.083-121.01855,4.72314-4.35986,9.34082-4.6084,11.31054-4.47217,10.76856,8.31348,9.79737,12.69336,6.22022,28.8252-2.84125,12.81335-6.643,29.98944-4.19049,55.10144a9.92477,9.92477,0,0,0,.21673,2.09857c.16639,1.51623.3512,3.05548.56458,4.62909,8.31836,61.34588,68.57959,92.55206,80.53259,98.17126a60.55042,60.55042,0,0,1-6.37195,9.50354c-3.87982,4.75592-7.85986,9.24512-11.88653,13.478-30.84979-14.91974-58.94141-42.22217-81.30146-79.05908-1.41339-2.32849-2.79559-4.713-4.16253-7.12024C137.90894,149.23773,137.90814,149.19238,137.90088,149.14648ZM50.104,36.4292c1.60352-10.9585,5.70313-13.0083,9.9712-15.15186.63916-.12451,4.38085.81739,9.45507,7.48731,4.71436,6.19629,11.35254,18.37256,16.2085,41.1958,6.59961,31.01709,21.26953,67.21191,39.24219,96.8208,22.819,37.5929,51.44488,66.23163,83.18536,83.35809a266.78767,266.78767,0,0,1-32.91156,24.876c-5.74481-3.99695-22.1427-16.07947-40.94861-35.9787-21.37744-22.62012-50.3584-60.2998-67.02783-111.34911C53.29,84.84766,47.51123,54.144,50.104,36.4292Zm7.60645,278.05127c-19.47382-37.79364,1.34277-99.28961,13.31622-128.37482,4.0459,7.335,8.24628,14.25574,12.50745,20.76306a10.02778,10.02778,0,0,0-.69965,1.6601c-9.59961,30.523-12.45166,60.14453-8.47607,88.042a163.05356,163.05356,0,0,0,12.49072,43.56378C73.437,334.81476,63.81891,326.33514,57.71045,314.48047Zm389.73291,143.23c.56445,2.96533-.23242,4.81982-2.75147,6.40185-6.62793,4.1626-23.48046,4.458-40.1914-7.91992-26.99951-19.99951-80.38086-31.28174-167.99463-35.50586-46.36084-2.23535-91.64063-27.25586-118.16943-65.29785-17.82618-25.5625-34.99817-67.93982-20.09028-127.83807a331.39759,331.39759,0,0,0,22.00043,25.72626q3.164,3.33416,6.22309,6.381a115.54261,115.54261,0,0,0,2.46344,42.87091c5.4121,21.9126,19.978,52.02783,58.63574,71.05957,41.99364,20.67383,77.99267,22.00293,112.80664,23.28857,24.05469.88819,48.92871,1.80664,76.83984,8.88867C418.09814,416.13867,443.03857,434.58643,447.44336,457.71045Zm32.00049-82.25391c-2.99219,4.40723-12.69434,5.71-26.92432-1.84668-29.13281-15.4707-57.53857-7.2705-96.853,4.07959l-4.97119,1.4336a9.98468,9.98468,0,0,0-2.25738.97442c-16.55731-2.06122-32.10144-2.64471-47.32465-3.20685-25.80365-.95281-50.5293-1.8703-77.49121-10.31536.278-.1316.54926-.25873.83185-.3935,15.056-.30371,81.25183-2.58069,130.15692-19.36926,73.17139-25.1167,108.64014,5.03076,120.2959,14.9375C480.937,366.876,481.48584,372.44824,479.44385,375.45654Z"/><text x="0" y="515" fill="#000000" font-size="5px" font-weight="bold" font-family="'Helvetica Neue', Helvetica, Arial-Unicode, Arial, Sans-serif"></text><text x="0" y="520" fill="#000000" font-size="5px" font-weight="bold" font-family="'Helvetica Neue', Helvetica, Arial-Unicode, Arial, Sans-serif"></text></svg>