<svg xmlns="http://www.w3.org/2000/svg" xmlns:xlink="http://www.w3.org/1999/xlink" version="1.1" x="0px" y="0px" viewBox="0 0 100 125" style="enable-background:new 0 0 100 100;" xml:space="preserve"><g><path fill="white" d="M50,5C25.19,5,5,25.19,5,50c0,24.81,20.19,45,45,45s45-20.19,45-45C95,25.19,74.81,5,50,5z M50,93.45   C26.04,93.45,6.55,73.96,6.55,50C6.55,26.04,26.04,6.55,50,6.55S93.45,26.04,93.45,50C93.45,73.96,73.96,93.45,50,93.45z"/><path fill="white" d="M78.88,34.62c-0.67,0-1.59-0.64-2.05-1.85c-0.27-0.71-0.31-1.46-0.11-2.07c0.08-0.23,0.04-0.49-0.1-0.69   c-4.73-6.64-11.68-11.28-19.59-13.07c-0.14-0.03-0.29-0.02-0.43,0.03c-0.66,0.23-1.43,0.36-2.24,0.36c-1.4,0-2.69-0.38-3.36-0.99   c-0.14-0.13-0.32-0.2-0.5-0.2c-0.26-0.01-0.52-0.01-0.78-0.01c-4.26,0-8.46,0.83-12.37,2.4c-0.1,0-0.2,0.02-0.29,0.06   c-0.09,0.04-0.17,0.09-0.24,0.16c-1.36,0.58-2.68,1.25-3.96,2.01c-0.17,0.1-0.3,0.27-0.35,0.47c-0.33,1.24-1.45,2.1-2.73,2.1   c-0.09,0-0.18-0.01-0.27-0.01c-0.2-0.02-0.4,0.04-0.56,0.17c-3.01,2.44-5.55,5.36-7.54,8.68c-0.07,0.11-0.1,0.24-0.11,0.36   c-0.04,0.92-0.31,2.02-0.75,3.1c-0.54,1.32-1.31,2.48-2.04,3.12c-0.11,0.09-0.19,0.21-0.23,0.35c-1.04,3.24-1.56,6.62-1.56,10.05   l0,0.27c0,0.32,0.21,0.61,0.51,0.72c0.64,0.23,1.28,1.15,1.28,2.46c0,0.93-0.34,1.79-0.9,2.24c-0.22,0.18-0.33,0.47-0.27,0.75   c0.46,2.32,1.17,4.59,2.11,6.75c0.13,0.29,0.42,0.48,0.75,0.46c0.49-0.02,1.82,1.17,2.76,3.63c0.35,0.93,0.57,1.86,0.64,2.69   c0.01,0.15,0.07,0.3,0.16,0.41c3.43,4.36,7.81,7.73,12.82,9.9c0.07,0.06,0.14,0.12,0.23,0.15c0.09,0.04,0.19,0.06,0.28,0.06   c1,0.41,2.03,0.79,3.08,1.1c0.32,0.1,0.67-0.02,0.86-0.3c0.3-0.44,0.8-0.7,1.33-0.7c0.8,0,1.47,0.57,1.6,1.37   c0.05,0.33,0.31,0.59,0.64,0.64c1.68,0.26,3.39,0.39,5.1,0.39c5.12,0,10.03-1.14,14.6-3.4c0.28-0.14,0.45-0.44,0.43-0.75   c-0.01-0.07-0.01-0.15-0.01-0.22c0-1.56,1.27-2.82,2.82-2.82c0.5,0,1,0.14,1.43,0.39c0.27,0.16,0.62,0.14,0.87-0.05   c5.42-4.18,9.36-9.83,11.38-16.33c0.08-0.26,0.02-0.54-0.16-0.75c-0.48-0.53-0.78-2.27-0.4-4.44c0.36-2.06,1.14-3.47,1.75-3.94   c0.19-0.15,0.3-0.4,0.3-0.64l0-0.05c0-4.92-1.06-9.65-3.15-14.07C79.45,34.79,79.18,34.62,78.88,34.62z M75.15,30.61   c-0.19,0.85-0.11,1.8,0.24,2.71c0.57,1.5,1.72,2.56,2.98,2.8c0.05,0.11,0.1,0.22,0.15,0.33l-27.5,11.26l11.45-27.34   C67.48,22.59,71.86,26.1,75.15,30.61z M50.2,17.68c0.98,0.75,2.51,1.2,4.17,1.2c0.89,0,1.76-0.13,2.54-0.37   c1.41,0.33,2.79,0.76,4.13,1.27L49.58,47.12L38.39,19.79C42.14,18.34,46.15,17.62,50.2,17.68z M21.98,36.21   c0.48-1.17,0.78-2.37,0.86-3.42c1.83-3.01,4.14-5.67,6.86-7.92c0.03,0,0.05,0,0.08,0c1.87,0,3.52-1.19,4.13-2.94   c0.99-0.58,2.01-1.09,3.05-1.56L48.18,47.8l-26.2-10.91c-0.09-0.04-0.18-0.05-0.28-0.06C21.8,36.62,21.89,36.42,21.98,36.21z    M18.26,48.91c0.02-3.12,0.5-6.2,1.42-9.15c0.48-0.45,0.94-1.04,1.36-1.73c0.08,0.12,0.2,0.22,0.34,0.28l26.06,10.86L20.3,60.28   c-0.57-1.49-1.02-3.03-1.35-4.59c0.7-0.76,1.11-1.89,1.11-3.11C20.06,50.98,19.35,49.57,18.26,48.91z M25.12,68.75   c-0.1-0.91-0.35-1.9-0.71-2.87c-0.69-1.83-1.84-3.64-3.12-4.33l26.85-10.99L36.73,77.8C32.22,75.76,28.26,72.68,25.12,68.75z    M49.72,80.6c-1.46,0-2.92-0.1-4.36-0.3c-0.44-1.24-1.62-2.1-2.98-2.1c-0.84,0-1.64,0.33-2.23,0.91c-0.68-0.22-1.34-0.46-2-0.71   l11.41-27.24L60.8,78.59C57.27,79.93,53.56,80.6,49.72,80.6z M69.3,73.76c-0.55-0.24-1.14-0.36-1.74-0.36   c-2.34,0-4.26,1.85-4.37,4.17c-0.32,0.15-0.64,0.3-0.97,0.44l-11.2-27.36l27.39,11.41C76.37,66.62,73.26,70.61,69.3,73.76z    M79.15,53.5c-0.39,2.2-0.19,4.23,0.5,5.36c-0.19,0.6-0.41,1.19-0.64,1.77L51.5,49.18l27.6-11.3c1.34,3.5,2.04,7.18,2.08,11   C80.26,49.79,79.5,51.51,79.15,53.5z"/><path fill="white" d="M89.18,46.34c0.82-2.06,0.44-4.42-0.97-6.12c-1.42-5.91-4.23-11.49-8.15-16.14c-0.23-1.21-0.8-2.3-1.67-3.17   c-0.87-0.87-1.96-1.44-3.17-1.67c-3.07-2.59-6.5-4.67-10.18-6.21c-0.21-0.42-0.48-0.8-0.81-1.13c-1.33-1.33-3.33-1.62-4.98-0.77   c-5.28-1.29-10.88-1.48-16.24-0.54c-2.15-0.65-4.45-0.07-6.05,1.52c-0.02,0.02-0.04,0.04-0.06,0.06   c-5.66,1.96-10.7,5.12-14.96,9.38c-2.88,2.88-5.29,6.17-7.15,9.77c-1.4,1.05-2.64,3-3.35,5.29c-0.62,2.01-0.76,4.05-0.4,5.64   c-0.9,4.87-0.88,9.81,0.05,14.67c-1.11,2.33-0.65,5.07,1.19,6.92c0.35,0.35,0.75,0.66,1.18,0.92c1.98,4.72,4.83,8.95,8.48,12.6   c1.37,1.37,2.85,2.65,4.4,3.8c0.35,0.74,0.81,1.41,1.39,1.99c1.41,1.41,3.35,2.15,5.34,2.03c5.2,2.44,10.98,3.72,16.75,3.73   c1.11,0.72,2.82,1.08,4.75,1.08c2.27,0,4.85-0.49,7.14-1.46c1.45-0.61,2.24-1.38,3.01-2.12c0.24-0.24,0.5-0.48,0.77-0.72   c4.57-1.97,8.69-4.78,12.24-8.33c1.37-1.37,2.65-2.85,3.8-4.4c0.74-0.35,1.41-0.81,1.99-1.39c1.41-1.41,2.15-3.35,2.03-5.34   C88.47,60.05,89.72,53.18,89.18,46.34z M84.09,65.74c-0.06,0.12-0.08,0.26-0.07,0.4c0.14,1.61-0.43,3.19-1.57,4.33   c-0.49,0.49-1.06,0.87-1.7,1.15c-0.13,0.05-0.24,0.14-0.32,0.25c-1.14,1.55-2.41,3.02-3.77,4.39c-3.44,3.44-7.43,6.15-11.87,8.05   c-0.07,0.03-0.14,0.07-0.2,0.13c-0.35,0.3-0.64,0.58-0.93,0.86c-0.72,0.7-1.35,1.31-2.53,1.81c-4.2,1.78-8.95,1.64-10.58,0.42   c-0.13-0.1-0.3-0.15-0.46-0.15c-0.07,0-0.15,0-0.22,0c-5.62,0-11.24-1.27-16.29-3.66c-0.12-0.06-0.26-0.08-0.4-0.07   c-1.61,0.14-3.19-0.43-4.33-1.57c-0.49-0.49-0.87-1.06-1.15-1.7c-0.05-0.13-0.14-0.24-0.25-0.32c-1.55-1.14-3.02-2.41-4.39-3.77   c-3.56-3.56-6.34-7.72-8.24-12.34c-0.07-0.17-0.19-0.3-0.35-0.39c-0.39-0.21-0.75-0.48-1.06-0.79c-1.42-1.42-1.74-3.57-0.79-5.35   c0.08-0.16,0.11-0.34,0.08-0.52c-0.96-4.81-0.98-9.69-0.07-14.51c0.02-0.11,0.02-0.23-0.01-0.34c-0.35-1.35-0.22-3.16,0.34-4.97   c0.63-2.02,1.74-3.78,2.91-4.59c0.11-0.07,0.19-0.17,0.25-0.28c1.8-3.52,4.14-6.73,6.95-9.55c4.15-4.15,9.04-7.2,14.56-9.08   c0.12-0.04,0.23-0.11,0.32-0.21l0.07-0.08c0.02-0.03,0.04-0.05,0.07-0.07c1.22-1.22,3.01-1.64,4.65-1.09   c0.12,0.04,0.25,0.05,0.38,0.03c5.3-0.95,10.86-0.76,16.08,0.56c0.2,0.05,0.42,0.02,0.6-0.09c1.08-0.68,2.46-0.52,3.36,0.38   c0.26,0.26,0.47,0.57,0.6,0.92c0.08,0.2,0.23,0.35,0.43,0.43c3.71,1.51,7.15,3.6,10.22,6.21c0.11,0.09,0.24,0.15,0.39,0.18   c0.97,0.15,1.84,0.59,2.53,1.27c0.69,0.69,1.12,1.56,1.27,2.53c0.02,0.14,0.08,0.28,0.18,0.39c3.87,4.55,6.64,10.03,8,15.84   c0.03,0.12,0.09,0.24,0.17,0.34c1.16,1.31,1.46,3.2,0.76,4.81c-0.05,0.12-0.07,0.25-0.06,0.37C88.18,52.98,86.96,59.71,84.09,65.74   z"/><path fill="white" d="M50.12,23.56c-0.34-3.42-3.15-4.47-4.58-4.55c-0.35-0.02-0.66,0.2-0.77,0.53l-1.83,5.5c-0.09,0.27-0.02,0.57,0.18,0.78   c0.15,0.15,0.35,0.24,0.56,0.24c0.07,0,0.14-0.01,0.22-0.03l5.69-1.65C49.92,24.28,50.16,23.93,50.12,23.56z M44.86,24.14   l1.16-3.48c0.75,0.19,2.04,0.76,2.45,2.43L44.86,24.14z"/><path fill="white" d="M57.91,63.06c0.59,0.18,1.13,0.26,1.64,0.26c2.34,0,3.81-1.66,4.32-2.73c0.15-0.31,0.07-0.69-0.19-0.92l-4.37-3.82   c-0.22-0.19-0.52-0.24-0.79-0.14c-0.27,0.1-0.46,0.35-0.49,0.63l-0.67,5.88C57.33,62.6,57.56,62.95,57.91,63.06z M59.41,57.99   l2.77,2.42c-0.47,0.63-1.48,1.59-3.19,1.32L59.41,57.99z"/><path fill="white" d="M47.4,73.22c0.09,3.44,2.81,4.69,4.24,4.87c0.03,0,0.06,0.01,0.1,0.01c0.31,0,0.59-0.19,0.71-0.48l2.23-5.35   c0.11-0.27,0.06-0.57-0.12-0.79c-0.18-0.22-0.48-0.32-0.76-0.26l-5.79,1.23C47.65,72.52,47.39,72.84,47.4,73.22z M52.68,73.03   l-1.41,3.39c-0.75-0.25-1.98-0.9-2.27-2.61L52.68,73.03z"/><path fill="white" d="M69.03,47.87l-5.68-1.66c-0.36-0.1-0.74,0.06-0.91,0.39c-1.55,3.07,0.26,5.46,1.43,6.3c0.13,0.1,0.29,0.14,0.45,0.14   c0.17,0,0.35-0.06,0.49-0.17l4.5-3.66c0.22-0.18,0.33-0.47,0.27-0.75C69.52,48.17,69.31,47.95,69.03,47.87z M64.34,51.26   c-0.54-0.57-1.31-1.73-0.76-3.37l3.61,1.05L64.34,51.26z"/><path fill="white" d="M35.01,61.84l4.94,0.7c0.04,0.01,0.07,0.01,0.11,0.01c0.33,0,0.63-0.21,0.73-0.53c0.95-2.83-0.9-4.65-2.01-5.22   c-0.31-0.16-0.69-0.09-0.92,0.16l-3.31,3.59c-0.19,0.21-0.26,0.51-0.16,0.78C34.49,61.61,34.72,61.8,35.01,61.84z M38.54,58.5   c0.48,0.41,1.1,1.19,0.93,2.41l-2.79-0.39L38.54,58.5z"/><path fill="white" d="M21.55,46.94l4.68,1.39c0.07,0.02,0.15,0.03,0.22,0.03c0.21,0,0.41-0.08,0.55-0.23c0.2-0.21,0.27-0.51,0.18-0.78   l-1.55-4.74c-0.12-0.35-0.47-0.58-0.84-0.53c-2.95,0.4-3.78,2.86-3.81,4.1C20.99,46.53,21.22,46.84,21.55,46.94z M24.39,43.75   l0.87,2.68l-2.63-0.78C22.79,45.04,23.21,44.13,24.39,43.75z"/><path fill="white" d="M39.01,42.19c0.07,0.36,0.39,0.62,0.76,0.62c0,0,0.01,0,0.01,0c2.98-0.05,4.09-2.39,4.26-3.63   c0.05-0.34-0.14-0.68-0.46-0.82l-4.49-1.93c-0.26-0.11-0.57-0.07-0.79,0.11c-0.22,0.18-0.33,0.47-0.27,0.75L39.01,42.19z    M42.35,39.52c-0.22,0.58-0.75,1.44-1.97,1.68l-0.56-2.76L42.35,39.52z"/><path fill="white" d="M68.59,35.32c0.15,0.17,0.36,0.26,0.58,0.26c0.06,0,0.12-0.01,0.18-0.02c0.28-0.07,0.5-0.28,0.57-0.56l1.5-5.95   c0.09-0.36-0.09-0.74-0.43-0.89c-3.23-1.48-5.62,0.47-6.43,1.71c-0.19,0.29-0.16,0.67,0.06,0.93L68.59,35.32z M69.76,29.33   l-0.97,3.86l-2.56-2.92C66.79,29.68,67.99,28.8,69.76,29.33z"/><path fill="white" d="M32.32,35.53c1.83,0,3.32-1.85,3.32-4.13c0-2.51-1.31-4.13-3.32-4.13S29,28.89,29,31.4C29,33.68,30.49,35.53,32.32,35.53z    M32.32,28.82c0.43,0,0.76,0.14,1.01,0.35c-0.2-0.09-0.44-0.09-0.65,0.01c-0.13,0.07-0.48,0.09-0.64,0.06   c-0.21-0.15-0.48-0.18-0.72-0.09C31.58,28.95,31.9,28.82,32.32,28.82z M30.83,29.84c-0.01,0.21,0.06,0.42,0.22,0.58   c0.27,0.27,0.73,0.38,1.18,0.38c0.43,0,0.85-0.09,1.13-0.23c0.29-0.15,0.45-0.45,0.42-0.76c0.27,0.59,0.31,1.28,0.31,1.59   c0,1.4-0.81,2.58-1.78,2.58c-0.96,0-1.78-1.18-1.78-2.58C30.54,31.09,30.58,30.42,30.83,29.84z"/><path fill="white"  d="M52.17,34.26c0.91-0.58,1.41-1.44,1.45-2.48c0.04-0.88-0.26-1.84-0.87-2.79c-0.57-0.9-1.39-1.58-2.29-1.91   c-0.98-0.36-1.95-0.28-2.73,0.21c-0.78,0.5-1.26,1.35-1.35,2.39c-0.08,0.96,0.19,1.98,0.77,2.88c0.6,0.94,1.35,1.62,2.16,1.96   c0.4,0.16,0.79,0.25,1.19,0.25C51.07,34.78,51.64,34.61,52.17,34.26z M48.45,31.74C48.45,31.74,48.45,31.74,48.45,31.74   c-0.39-0.61-0.58-1.31-0.53-1.92c0.05-0.55,0.27-0.98,0.64-1.21c0.2-0.13,0.44-0.19,0.7-0.19c0.21,0,0.43,0.04,0.66,0.13   c0.59,0.22,1.13,0.68,1.52,1.29c0.32,0.51,0.53,1.02,0.6,1.47c-0.1-0.18-0.28-0.32-0.5-0.37c-0.72-0.16-1.7,0.57-2.03,1.12   c-0.17,0.28-0.14,0.63,0.06,0.87C49.17,32.67,48.78,32.26,48.45,31.74z M50.84,32.84c0.08-0.13,0.36-0.33,0.51-0.39   c0.27,0.01,0.51-0.11,0.66-0.32c-0.1,0.34-0.32,0.61-0.66,0.83c-0.36,0.23-0.71,0.31-1.07,0.25C50.5,33.18,50.71,33.06,50.84,32.84   z"/><path fill="white" d="M32.76,53.32c0.98,0,2.04-0.38,2.94-1.12c1.93-1.61,2.33-3.65,1.04-5.2c-0.69-0.82-1.6-1.21-2.65-1.12   c-0.88,0.08-1.79,0.5-2.65,1.22c-1.75,1.46-2.21,3.79-1.04,5.2C30.96,52.98,31.82,53.32,32.76,53.32z M35.54,47.99   c0.28,0.33,0.38,0.67,0.38,1c-0.06-0.21-0.21-0.39-0.43-0.49c-0.14-0.06-0.38-0.31-0.45-0.45c-0.02-0.26-0.18-0.49-0.4-0.61   C34.98,47.5,35.28,47.68,35.54,47.99z M32.42,48.28c0.46-0.39,0.94-0.66,1.39-0.78c-0.17,0.13-0.29,0.32-0.31,0.55   c-0.07,0.74,0.78,1.61,1.37,1.87c0.1,0.04,0.21,0.06,0.31,0.06c0.21,0,0.4-0.09,0.55-0.24c-0.28,0.59-0.79,1.06-1.03,1.27   c-1.07,0.9-2.51,1.03-3.12,0.29C30.96,50.56,31.34,49.18,32.42,48.28z"/><path fill="white" d="M76.85,42.61c-1.93-0.6-3.66,0.56-4.4,2.95c-0.68,2.17,0.2,4.39,1.95,4.93c0.27,0.08,0.55,0.13,0.83,0.13   c0.63,0,1.28-0.22,1.87-0.64c0.79-0.56,1.39-1.43,1.71-2.44c0.33-1.07,0.37-2.08,0.1-2.92C78.58,43.63,77.88,42.93,76.85,42.61z    M75.88,44.01c0.16,0,0.33,0.03,0.51,0.08c0.4,0.12,0.69,0.34,0.88,0.65c-0.17-0.15-0.4-0.23-0.64-0.2   c-0.15,0.03-0.49-0.06-0.63-0.14c-0.16-0.2-0.4-0.31-0.65-0.29C75.51,44.05,75.68,44.01,75.88,44.01z M77.32,47.08   c-0.22,0.7-0.62,1.28-1.13,1.64c-0.45,0.32-0.92,0.42-1.34,0.29c-0.92-0.29-1.35-1.66-0.93-3c0.09-0.3,0.32-0.92,0.74-1.4   c-0.07,0.2-0.06,0.42,0.04,0.62c0.3,0.56,1.22,0.85,1.88,0.85c0.1,0,0.2-0.01,0.29-0.02c0.33-0.05,0.57-0.3,0.63-0.61   C77.56,45.93,77.5,46.49,77.32,47.08z"/><path fill="white" d="M34.67,65.26c-0.71-0.69-1.65-0.97-2.64-0.78c-1.9,0.36-2.83,2.12-2.38,4.47c0.37,1.93,1.83,3.32,3.38,3.32   c0.16,0,0.32-0.02,0.49-0.05c1.72-0.33,2.79-2.34,2.38-4.47C35.69,66.71,35.27,65.85,34.67,65.26z M32.32,66   c0.11-0.02,0.22-0.03,0.32-0.03c0.16,0,0.3,0.03,0.44,0.08c-0.14,0.01-0.28,0.06-0.4,0.15c-0.1,0.08-0.4,0.16-0.55,0.16   c-0.16-0.07-0.34-0.08-0.5-0.04C31.8,66.17,32.03,66.06,32.32,66z M33.22,70.71c-0.87,0.16-1.81-0.77-2.06-2.05   c-0.05-0.25-0.12-0.78-0.04-1.29c0.06,0.13,0.15,0.25,0.28,0.34c0.2,0.14,0.47,0.2,0.74,0.2c0.54,0,1.15-0.22,1.48-0.47   c0.2-0.16,0.31-0.39,0.3-0.63c0.2,0.34,0.36,0.76,0.45,1.25C34.62,69.32,34.09,70.54,33.22,70.71z"/><path fill="white" d="M46.47,66.59c0.55,0.64,1.36,0.96,2.23,0.96c0.95,0,1.97-0.37,2.83-1.11c1.82-1.56,2.18-3.51,0.92-4.98   c-0.66-0.77-1.57-1.14-2.55-1.04c-0.84,0.08-1.71,0.5-2.51,1.19C45.75,63.02,45.33,65.26,46.47,66.59z M51.29,62.47   c0.19,0.22,0.3,0.45,0.34,0.68c-0.08-0.11-0.19-0.21-0.33-0.27c-0.12-0.05-0.33-0.27-0.41-0.4c-0.02-0.17-0.1-0.33-0.22-0.45   C50.9,62.11,51.1,62.25,51.29,62.47z M48.4,62.78c0.36-0.31,0.74-0.54,1.1-0.68c-0.09,0.12-0.15,0.26-0.16,0.41   c-0.06,0.72,0.76,1.55,1.35,1.79c0.1,0.04,0.2,0.06,0.3,0.06c0.14,0,0.28-0.04,0.4-0.11c-0.26,0.47-0.66,0.84-0.86,1.01   c-0.99,0.85-2.31,0.99-2.88,0.32C47.07,64.91,47.42,63.63,48.4,62.78z"/><path fill="white" d="M67.03,68.15c0.87,0.86,1.98,1.31,2.99,1.31c0.78,0,1.51-0.27,2.05-0.81c1.23-1.25,0.97-3.51-0.58-5.03v0   c-0.76-0.75-1.6-1.22-2.43-1.36c-0.98-0.17-1.9,0.14-2.61,0.86c-0.71,0.72-1,1.66-0.82,2.63C65.79,66.57,66.27,67.4,67.03,68.15z    M70.41,64.72L70.41,64.72c0.93,0.91,1.18,2.21,0.56,2.85c-0.62,0.63-1.93,0.4-2.86-0.51c-0.34-0.34-0.61-0.69-0.78-1.04   c0.12,0.08,0.26,0.12,0.42,0.12c0,0,0,0,0.01,0c0.73-0.01,1.48-0.89,1.67-1.49c0.08-0.24,0.03-0.5-0.11-0.69   C69.68,64.11,70.06,64.37,70.41,64.72z M67.55,64.2c0.2-0.2,0.42-0.33,0.65-0.4c-0.11,0.09-0.19,0.21-0.24,0.35   c-0.04,0.12-0.24,0.35-0.36,0.44c-0.18,0.03-0.33,0.13-0.44,0.26C67.22,64.62,67.35,64.41,67.55,64.2z"/><path fill="white" d="M58.43,35.46c-0.87,0.62-1.47,1.37-1.75,2.16c-0.33,0.93-0.19,1.9,0.41,2.72c0.6,0.84,1.45,1.26,2.4,1.26   c0.83,0,1.75-0.32,2.66-0.98c1.77-1.27,2.37-3.46,1.34-4.89c-0.51-0.71-1.37-1.14-2.36-1.16C60.22,34.56,59.26,34.87,58.43,35.46z    M58.35,39.45c-0.17-0.23-0.26-0.47-0.28-0.72c0.07,0.12,0.17,0.23,0.31,0.3c0.11,0.06,0.31,0.3,0.37,0.43   c0,0.18,0.07,0.34,0.18,0.47C58.71,39.84,58.52,39.68,58.35,39.45z M62.24,36.65c0.52,0.72,0.06,1.97-0.99,2.73   c-0.21,0.15-0.65,0.44-1.16,0.58c0.1-0.11,0.17-0.24,0.19-0.39c0.12-0.72-0.62-1.61-1.19-1.9c-0.23-0.12-0.48-0.11-0.7-0.01   c0.22-0.33,0.54-0.65,0.94-0.94c0.52-0.38,1.14-0.59,1.7-0.59c0.02,0,0.04,0,0.06,0C61.39,36.14,61.93,36.21,62.24,36.65z"/></g><text x="0" y="115" fill="#000000" font-size="5px" font-weight="bold" font-family="'Helvetica Neue', Helvetica, Arial-Unicode, Arial, Sans-serif"></text><text x="0" y="120" fill="#000000" font-size="5px" font-weight="bold" font-family="'Helvetica Neue', Helvetica, Arial-Unicode, Arial, Sans-serif"></text></svg>